<svg width="37" height="36" viewBox="0 0 37 36" fill="none" xmlns="http://www.w3.org/2000/svg">
<g filter="url(#filter0_i_283_26443)">
<path opacity="0.8" fill-rule="evenodd" clip-rule="evenodd" d="M26.1638 1.73442C24.6905 1.73128 23.1283 1.87919 21.4351 2.5935C20.4905 2.99196 19.5758 3.53654 18.6528 4.23866C17.7361 3.53709 16.8256 2.9938 15.887 2.59599C14.2019 1.88176 12.6493 1.73207 11.2045 1.73442C3.69051 1.74663 -0.569577 9.50118 1.53839 16.6187C2.88618 21.1694 6.18813 24.8784 9.24646 27.571C12.1327 30.1121 15.1015 32.0012 16.6923 33.0134C16.8118 33.0895 16.9236 33.1606 17.0269 33.2266L18.6465 34.2618L20.2638 33.2232C20.3559 33.164 20.4545 33.1009 20.559 33.034C22.1427 32.0204 25.1092 30.1217 28.0121 27.5623C31.0651 24.8705 34.3585 21.1845 35.796 16.6785C36.9135 13.1756 36.5591 9.51957 34.8511 6.64729C33.1086 3.71685 30.0185 1.74264 26.1638 1.73442Z" fill="#F94233"/>
</g>
<defs>
<filter id="filter0_i_283_26443" x="-3.28125" y="-4" width="44" height="44" filterUnits="userSpaceOnUse" color-interpolation-filters="sRGB">
<feFlood flood-opacity="0" result="BackgroundImageFix"/>
<feBlend mode="normal" in="SourceGraphic" in2="BackgroundImageFix" result="shape"/>
<feColorMatrix in="SourceAlpha" type="matrix" values="0 0 0 0 0 0 0 0 0 0 0 0 0 0 0 0 0 0 127 0" result="hardAlpha"/>
<feOffset dy="1.5"/>
<feGaussianBlur stdDeviation="2"/>
<feComposite in2="hardAlpha" operator="arithmetic" k2="-1" k3="1"/>
<feColorMatrix type="matrix" values="0 0 0 0 0.3 0 0 0 0 0.03 0 0 0 0 0.03 0 0 0 0.2 0"/>
<feBlend mode="plus-darker" in2="shape" result="effect1_innerShadow_283_26443"/>
</filter>
</defs>
</svg>
