<svg width="49" height="50" viewBox="0 0 49 50" fill="none" xmlns="http://www.w3.org/2000/svg">
<g filter="url(#filter0_i_908_30743)">
<g opacity="0.8">
<path fill-rule="evenodd" clip-rule="evenodd" d="M36.4387 8.04602C34.7652 7.74726 32.9603 7.60232 30.8931 8.07475C29.7399 8.33828 28.5913 8.77383 27.4018 9.38674C26.5007 8.40583 25.5749 7.60604 24.588 6.96592C22.8163 5.81665 21.0819 5.33545 19.4396 5.04863C10.8987 3.55693 4.50393 11.5152 5.4732 20.0256C6.09292 25.4669 9.10193 30.3432 12.0378 34.0158C14.8084 37.4816 17.8035 40.2232 19.4084 41.6922C19.529 41.8026 19.6417 41.9058 19.7459 42.0015L21.3789 43.5024L23.4248 42.6462C23.5413 42.5974 23.666 42.5455 23.7982 42.4904L23.7982 42.4904C25.8009 41.6559 29.5524 40.0927 33.3639 37.7659C37.3725 35.3189 41.8536 31.7902 44.3899 26.9578C46.3617 23.2011 46.6915 18.9756 45.3261 15.3694C43.9332 11.6903 40.8173 8.82772 36.4387 8.04602Z" fill="#BCCED1"/>
<path fill-rule="evenodd" clip-rule="evenodd" d="M36.4387 8.04602C34.7652 7.74726 32.9603 7.60232 30.8931 8.07475C29.7399 8.33828 28.5913 8.77383 27.4018 9.38674C26.5007 8.40583 25.5749 7.60604 24.588 6.96592C22.8163 5.81665 21.0819 5.33545 19.4396 5.04863C10.8987 3.55693 4.50393 11.5152 5.4732 20.0256C6.09292 25.4669 9.10193 30.3432 12.0378 34.0158C14.8084 37.4816 17.8035 40.2232 19.4084 41.6922C19.529 41.8026 19.6417 41.9058 19.7459 42.0015L21.3789 43.5024L23.4248 42.6462C23.5413 42.5974 23.666 42.5455 23.7982 42.4904L23.7982 42.4904C25.8009 41.6559 29.5524 40.0927 33.3639 37.7659C37.3725 35.3189 41.8536 31.7902 44.3899 26.9578C46.3617 23.2011 46.6915 18.9756 45.3261 15.3694C43.9332 11.6903 40.8173 8.82772 36.4387 8.04602Z" fill="url(#paint0_linear_908_30743)"/>
</g>
</g>
<defs>
<filter id="filter0_i_908_30743" x="-5.34375" y="-5.03125" width="60.125" height="60.1211" filterUnits="userSpaceOnUse" color-interpolation-filters="sRGB">
<feFlood flood-opacity="0" result="BackgroundImageFix"/>
<feBlend mode="normal" in="SourceGraphic" in2="BackgroundImageFix" result="shape"/>
<feColorMatrix in="SourceAlpha" type="matrix" values="0 0 0 0 0 0 0 0 0 0 0 0 0 0 0 0 0 0 127 0" result="hardAlpha"/>
<feOffset dy="1.5"/>
<feGaussianBlur stdDeviation="2"/>
<feComposite in2="hardAlpha" operator="arithmetic" k2="-1" k3="1"/>
<feColorMatrix type="matrix" values="0 0 0 0 0.42 0 0 0 0 0.585 0 0 0 0 0.6 0 0 0 0.2 0"/>
<feBlend mode="normal" in2="shape" result="effect1_innerShadow_908_30743"/>
</filter>
<linearGradient id="paint0_linear_908_30743" x1="6.28047" y1="-3.81603" x2="47.8077" y2="11.1718" gradientUnits="userSpaceOnUse">
<stop stop-color="#FFAA00"/>
<stop offset="1" stop-color="#F94233"/>
</linearGradient>
</defs>
</svg>
