<svg width="32" height="32" viewBox="0 0 32 32" fill="none" xmlns="http://www.w3.org/2000/svg">
<path d="M4 4.41604H2.75V6.91604H4V4.41604ZM28 6.91604H29.25V4.41604H28V6.91604ZM26.5833 5.66604C26.5833 4.97568 26.0237 4.41604 25.3333 4.41604C24.643 4.41604 24.0833 4.97568 24.0833 5.66604H26.5833ZM7.91667 5.66604C7.91667 4.97568 7.35702 4.41604 6.66667 4.41604C5.97631 4.41604 5.41667 4.97568 5.41667 5.66604H7.91667ZM14.5833 11.8883V10.6383H12.0833V11.8883H14.5833ZM12.0833 22.5549V23.8049H14.5833V22.5549H12.0833ZM19.9167 11.8883V10.6383H17.4167V11.8883H19.9167ZM17.4167 22.5549V23.8049H19.9167V22.5549H17.4167ZM12.4444 1.99219H11.1944V4.49219H12.4444V1.99219ZM19.5556 4.49219H20.8056V1.99219H19.5556V4.49219ZM4 6.91604H28V4.41604H4V6.91604ZM24.0833 5.66604V26.1105H26.5833V5.66604H24.0833ZM24.0833 26.1105C24.0833 26.3706 23.9407 26.7354 23.6161 27.0599C23.2915 27.3845 22.9268 27.5271 22.6667 27.5271V30.0271C23.7399 30.0271 24.7085 29.5031 25.3839 28.8277C26.0593 28.1523 26.5833 27.1837 26.5833 26.1105H24.0833ZM22.6667 27.5271H9.33333V30.0271H22.6667V27.5271ZM9.33333 27.5271C9.07321 27.5271 8.70845 27.3845 8.38388 27.0599C8.05932 26.7354 7.91667 26.3706 7.91667 26.1105H5.41667C5.41667 27.1837 5.94068 28.1523 6.61612 28.8277C7.29155 29.5031 8.26013 30.0271 9.33333 30.0271V27.5271ZM7.91667 26.1105V5.66604H5.41667V26.1105H7.91667ZM12.0833 11.8883V22.5549H14.5833V11.8883H12.0833ZM17.4167 11.8883V22.5549H19.9167V11.8883H17.4167ZM12.4444 4.49219H19.5556V1.99219H12.4444V4.49219Z" fill="#090909"/>
</svg>
