<svg width="32" height="32" viewBox="0 0 32 32" fill="none" xmlns="http://www.w3.org/2000/svg">
<path d="M3.55469 15.9983L2.40221 15.5142L2.19891 15.9983L2.40221 16.4823L3.55469 15.9983ZM28.4436 15.9983L29.5961 16.4823L29.7994 15.9983L29.5961 15.5142L28.4436 15.9983ZM3.55469 15.9983C4.70717 16.4823 4.70698 16.4827 4.70681 16.4831C4.70678 16.4832 4.70662 16.4836 4.70654 16.4838C4.70639 16.4841 4.7063 16.4844 4.70626 16.4845C4.70618 16.4846 4.70632 16.4843 4.70669 16.4834C4.70742 16.4817 4.70905 16.478 4.71157 16.4722C4.71662 16.4606 4.72525 16.441 4.7375 16.4139C4.76202 16.3598 4.80096 16.2758 4.85461 16.1663C4.96199 15.9472 5.12772 15.6269 5.35386 15.2392C5.80757 14.4614 6.49654 13.4261 7.43475 12.3951C9.31325 10.3308 12.1135 8.35938 15.9991 8.35938V5.85938C11.1736 5.85938 7.75168 8.33236 5.58574 10.7125C4.50172 11.9037 3.71292 13.0907 3.19441 13.9795C2.93444 14.4252 2.74044 14.7993 2.60963 15.0663C2.54418 15.1999 2.49441 15.3069 2.45998 15.383C2.44276 15.421 2.42937 15.4513 2.41975 15.4734C2.41495 15.4844 2.41109 15.4934 2.40817 15.5002C2.4067 15.5036 2.40548 15.5065 2.40449 15.5088C2.40399 15.51 2.40355 15.511 2.40317 15.5119C2.40298 15.5124 2.40274 15.513 2.40265 15.5132C2.40242 15.5137 2.40221 15.5142 3.55469 15.9983ZM15.9991 8.35938C19.8847 8.35938 22.685 10.3308 24.5635 12.3951C25.5017 13.4261 26.1907 14.4614 26.6444 15.2392C26.8705 15.6269 27.0363 15.9472 27.1437 16.1663C27.1973 16.2758 27.2362 16.3598 27.2608 16.4139C27.273 16.441 27.2816 16.4606 27.2867 16.4722C27.2892 16.478 27.2908 16.4817 27.2916 16.4834C27.2919 16.4843 27.2921 16.4846 27.292 16.4845C27.292 16.4844 27.2919 16.4841 27.2917 16.4838C27.2916 16.4836 27.2915 16.4832 27.2915 16.4831C27.2913 16.4827 27.2911 16.4823 28.4436 15.9983C29.5961 15.5142 29.5958 15.5137 29.5956 15.5132C29.5955 15.513 29.5953 15.5124 29.5951 15.5119C29.5947 15.511 29.5943 15.51 29.5938 15.5088C29.5928 15.5065 29.5916 15.5036 29.5901 15.5002C29.5872 15.4934 29.5833 15.4844 29.5785 15.4734C29.5689 15.4513 29.5555 15.421 29.5383 15.383C29.5039 15.3069 29.4541 15.1999 29.3886 15.0663C29.2578 14.7993 29.0638 14.4252 28.8039 13.9795C28.2853 13.0907 27.4965 11.9037 26.4125 10.7125C24.2466 8.33236 20.8246 5.85938 15.9991 5.85938V8.35938ZM28.4436 15.9983C27.2911 15.5142 27.2913 15.5138 27.2915 15.5134C27.2915 15.5133 27.2916 15.5129 27.2917 15.5127C27.2919 15.5124 27.292 15.5122 27.292 15.5121C27.2921 15.5119 27.2919 15.5122 27.2916 15.5131C27.2908 15.5148 27.2892 15.5186 27.2867 15.5244C27.2816 15.536 27.273 15.5555 27.2608 15.5826C27.2362 15.6368 27.1973 15.7207 27.1437 15.8302C27.0363 16.0493 26.8705 16.3696 26.6444 16.7573C26.1907 17.5351 25.5017 18.5704 24.5635 19.6014C22.685 21.6657 19.8847 23.6372 15.9991 23.6372V26.1372C20.8246 26.1372 24.2466 23.6642 26.4125 21.284C27.4965 20.0928 28.2853 18.9059 28.8039 18.017C29.0638 17.5713 29.2578 17.1972 29.3886 16.9302C29.4541 16.7967 29.5039 16.6896 29.5383 16.6136C29.5555 16.5755 29.5689 16.5452 29.5785 16.5232C29.5833 16.5121 29.5872 16.5032 29.5901 16.4963C29.5916 16.4929 29.5928 16.49 29.5938 16.4877C29.5943 16.4865 29.5947 16.4855 29.5951 16.4846C29.5953 16.4841 29.5955 16.4836 29.5956 16.4833C29.5958 16.4828 29.5961 16.4823 28.4436 15.9983ZM15.9991 23.6372C12.1135 23.6372 9.31325 21.6657 7.43475 19.6014C6.49654 18.5704 5.80757 17.5351 5.35386 16.7573C5.12772 16.3696 4.96199 16.0493 4.85461 15.8302C4.80096 15.7207 4.76202 15.6368 4.7375 15.5826C4.72525 15.5555 4.71662 15.536 4.71157 15.5244C4.70905 15.5186 4.70742 15.5148 4.70669 15.5131C4.70632 15.5122 4.70618 15.5119 4.70626 15.5121C4.7063 15.5122 4.70639 15.5124 4.70654 15.5127C4.70662 15.5129 4.70678 15.5133 4.70681 15.5134C4.70698 15.5138 4.70717 15.5142 3.55469 15.9983C2.40221 16.4823 2.40242 16.4828 2.40265 16.4833C2.40274 16.4836 2.40298 16.4841 2.40317 16.4846C2.40355 16.4855 2.40399 16.4865 2.40449 16.4877C2.40548 16.49 2.4067 16.4929 2.40817 16.4963C2.41109 16.5032 2.41495 16.5121 2.41975 16.5232C2.42937 16.5452 2.44276 16.5755 2.45998 16.6136C2.49441 16.6896 2.54418 16.7967 2.60963 16.9302C2.74044 17.1972 2.93444 17.5713 3.19441 18.017C3.71292 18.9059 4.50172 20.0928 5.58574 21.284C7.75168 23.6642 11.1736 26.1372 15.9991 26.1372V23.6372Z" fill="black"/>
<path d="M14.2235 15.9987C14.2235 14.4569 14.7985 13.3061 15.3791 12.532C15.5975 12.2408 15.8156 12.0048 16.0013 11.8246C16.187 12.0048 16.4051 12.2408 16.6235 12.532C17.2041 13.3061 17.7791 14.4569 17.7791 15.9987C17.7791 17.5405 17.2041 18.6913 16.6235 19.4654C16.4051 19.7566 16.187 19.9926 16.0013 20.1728C15.8156 19.9926 15.5975 19.7566 15.3791 19.4654C14.7985 18.6913 14.2235 17.5405 14.2235 15.9987Z" fill="black" stroke="black" stroke-width="1.77778"/>
</svg>
