<svg width="14" height="18" viewBox="0 0 14 18" fill="none" xmlns="http://www.w3.org/2000/svg">
<rect width="14" height="18" fill="#1E1E1E"/>
<g id="Shop components">
<path d="M-1353 -938C-1353 -939.105 -1352.1 -940 -1351 -940H1093C1094.1 -940 1095 -939.105 1095 -938V2719C1095 2720.1 1094.1 2721 1093 2721H-1351C-1352.1 2721 -1353 2720.1 -1353 2719V-938Z" fill="#444444"/>
<path d="M-1351 -939H1093V-941H-1351V-939ZM1094 -938V2719H1096V-938H1094ZM1093 2720H-1351V2722H1093V2720ZM-1352 2719V-938H-1354V2719H-1352ZM-1351 2720C-1351.55 2720 -1352 2719.55 -1352 2719H-1354C-1354 2720.66 -1352.66 2722 -1351 2722V2720ZM1094 2719C1094 2719.55 1093.55 2720 1093 2720V2722C1094.66 2722 1096 2720.66 1096 2719H1094ZM1093 -939C1093.55 -939 1094 -938.552 1094 -938H1096C1096 -939.657 1094.66 -941 1093 -941V-939ZM-1351 -941C-1352.66 -941 -1354 -939.657 -1354 -938H-1352C-1352 -938.552 -1351.55 -939 -1351 -939V-941Z" fill="white" fill-opacity="0.1"/>
<g id="Chevron / Dropdown">
<rect x="-18.5" y="-10.5" width="51" height="71" rx="4.5" fill="white"/>
<rect x="-18.5" y="-10.5" width="51" height="71" rx="4.5" stroke="#9747FF" stroke-dasharray="10 5"/>
<g id="State=Idle">
<path id="Vector 990" d="M13 6L7 12L1 6" stroke="#BCCED1" stroke-width="2"/>
</g>
</g>
</g>
</svg>
